<?xml version="1.0" encoding="utf-8"?>
<!-- Generator: Adobe Illustrator 18.1.1, SVG Export Plug-In . SVG Version: 6.00 Build 0)  -->
<svg version="1.1" id="Layer_2" xmlns="http://www.w3.org/2000/svg" xmlns:xlink="http://www.w3.org/1999/xlink" x="0px" y="0px"
	 viewBox="0 0 958 199.2" enable-background="new 0 0 958 199.2" xml:space="preserve">
<g>
	<defs>
		<path id="SVGID_1_" d="M79.9,4.5C67,38.4,45.4,51,23.9,78.5C1,106.7,2.7,148.3,29,174.5c14.1,14.1,32.5,21.1,50.9,21.1
			c18.4,0,36.8-7,50.9-21.1c26.3-26.3,28-67.8,5.2-96.1C114.4,51,92.8,38.4,79.9,4.5L79.9,4.5z"/>
	</defs>
	<clipPath id="SVGID_2_">
		<use xlink:href="#SVGID_1_"  overflow="visible"/>
	</clipPath>
	<g clip-path="url(#SVGID_2_)">
		<rect x="84.2" y="4.5" fill="#2AA8E0" width="72" height="191.1"/>
		<g>
			<rect x="3.7" y="4.5" fill="#0D6B93" width="72" height="191.1"/>
		</g>
	</g>
</g>
<g>
	<path fill="#2AA8E0" d="M196,115c-7.8-7.5-11.7-16.6-11.7-27.2c0-10.6,3.9-19.7,11.7-27.3c7.8-7.6,16.8-11.4,26.9-11.4
		c10.2,0,18.8,2.8,25.8,8.4c0.8,0.8,0.9,1.8,0.2,2.8c-0.7,1-1.6,1.1-2.8,0.4c-6.5-5-14.3-7.6-23.4-7.6c-9.1,0-17.1,3.4-24.1,10.2
		c-6.9,6.8-10.4,15-10.4,24.5c0,9.6,3.5,17.8,10.4,24.5c6.9,6.8,15.4,10.2,25.4,10.2c8,0,15.4-2.6,22.1-7.7c0.9-0.6,1.8-0.4,2.6,0.6
		c0.8,1,0.8,1.9-0.1,2.8c-7.3,5.6-15.5,8.4-24.6,8.4C213.2,126.4,203.8,122.6,196,115z"/>
	<path fill="#2AA8E0" d="M274.8,18.1c0-1.4,0.7-2.1,2-2.1c1.3,0,2,0.7,2,2.1v106.3c0,1.4-0.7,2.1-2,2.1c-1.3,0-2-0.7-2-2.1V18.1z"/>
	<path fill="#2AA8E0" d="M375.7,84.8v0.6c-0.2,1.3-0.8,1.9-1.9,1.9H305v0.5c0,9.5,3.3,17.6,9.9,24.4c6.6,6.8,14.5,10.2,23.7,10.3
		c5.8,0,11.1-1.4,16-4.3s8.8-6.7,11.8-11.5c0.7-1,1.7-1.2,2.8-0.5c1.1,0.7,1.3,1.6,0.6,2.7c-3.4,5.3-7.8,9.5-13.3,12.7
		c-5.5,3.2-11.4,4.8-17.8,4.8c-10.3-0.1-19.1-3.9-26.4-11.4c-7.3-7.5-11-16.6-11.2-27.2c0.2-10.7,3.9-19.9,11.2-27.4
		c7.3-7.5,15.9-11.3,26-11.3c10,0,18.6,3.4,25.7,10.3C371.1,66.2,375,74.7,375.7,84.8z M360.7,61.9c-6.3-5.8-13.7-8.7-22.2-8.7
		c-8.5,0-15.9,2.9-22.2,8.7c-6.4,5.8-10.1,13-11.1,21.6h66.6C370.7,74.9,367.1,67.7,360.7,61.9z"/>
	<path fill="#2AA8E0" d="M457,51.2c0-1.4,0.7-2.1,2-2.1c1.3,0,2,0.7,2,2.1v73.2c0,1.4-0.7,2.1-2,2.1c-1.3,0-2-0.7-2-2.1v-19.3
		c-3.1,6.4-7.5,11.6-13.3,15.5c-5.8,3.9-12.2,5.8-19.2,5.8c-10.1,0-18.7-3.8-25.8-11.4c-7.1-7.6-10.7-16.7-10.7-27.3
		c0-10.6,3.5-19.7,10.7-27.3c7.1-7.6,15.7-11.4,25.8-11.4c6.9,0,13.3,1.9,19.2,5.8c5.8,3.9,10.3,9,13.3,15.5V51.2z M401.5,112.3
		c6.4,6.8,14,10.2,23,10.2c8.9,0,16.6-3.4,23-10.2c6.4-6.8,9.5-15,9.5-24.5c0-9.6-3.2-17.7-9.5-24.5c-6.4-6.7-14-10.1-23-10.1
		c-8.9,0-16.6,3.4-23,10.1c-6.4,6.7-9.5,14.9-9.5,24.5C392,97.4,395.2,105.6,401.5,112.3z"/>
	<path fill="#2AA8E0" d="M527.4,53.3c-15.6,0-27.5,11.7-35.7,35v36.1c0,1.4-0.6,2.1-1.9,2.1s-1.9-0.7-1.9-2.1V88.3
		c-0.1-0.2-0.1-0.5,0-0.9V51.2c0-0.5,0.2-1,0.6-1.4c0.4-0.4,0.8-0.6,1.3-0.6c1.3,0,1.9,0.7,1.9,2.1v26.2c1.5-3.5,3.1-6.5,4.9-9.2
		c8.5-12.7,18.8-19.1,30.8-19.1c1.4,0,2.1,0.7,2.1,2.1C529.4,52.6,528.7,53.3,527.4,53.3z"/>
	<path fill="#2AA8E0" d="M625.7,125.2c0,0.3-0.2,0.6-0.6,0.9c-0.4,0.3-0.8,0.4-1.2,0.4c-0.4,0-0.7-0.1-0.9-0.2
		c-0.6,0-0.9-0.3-0.9-0.8c-0.1,0-0.2-0.1-0.2-0.2v-0.2l-20.8-49.5l-20.8,49.5c-0.3,0.7-0.8,1.2-1.4,1.3h-0.9c-0.3,0-0.7-0.2-1-0.6
		c-0.4-0.4-0.6-0.7-0.6-1l-30.6-72.7c-0.6-1.3-0.3-2.1,1.1-2.5c1.2-0.6,2.1-0.3,2.7,0.9l28.9,68.8L599,70.1c0.3-0.9,0.9-1.4,1.9-1.3
		c0.9,0.1,1.7,0.5,2.2,1.3l20.7,49.2l29-68.8c0.2-0.7,0.7-1.1,1.5-1.1c0.8,0,1.4,0.3,1.9,0.8c0.5,0.5,0.6,1.2,0.2,1.9L625.7,125.2z"
		/>
	<path fill="#2AA8E0" d="M737.7,51.2c0-1.4,0.7-2.1,2-2.1c1.3,0,2,0.7,2,2.1v73.2c0,1.4-0.7,2.1-2,2.1c-1.3,0-2-0.7-2-2.1v-19.3
		c-3.1,6.4-7.5,11.6-13.3,15.5c-5.8,3.9-12.2,5.8-19.2,5.8c-10.1,0-18.7-3.8-25.8-11.4c-7.1-7.6-10.7-16.7-10.7-27.3
		c0-10.6,3.5-19.7,10.7-27.3c7.1-7.6,15.7-11.4,25.8-11.4c6.9,0,13.3,1.9,19.2,5.8c5.8,3.9,10.3,9,13.3,15.5V51.2z M682.2,112.3
		c6.4,6.8,14,10.2,23,10.2c8.9,0,16.6-3.4,23-10.2c6.4-6.8,9.5-15,9.5-24.5c0-9.6-3.2-17.7-9.5-24.5c-6.4-6.7-14-10.1-23-10.1
		c-8.9,0-16.6,3.4-23,10.1c-6.4,6.7-9.5,14.9-9.5,24.5C672.7,97.4,675.9,105.6,682.2,112.3z"/>
	<path fill="#2AA8E0" d="M792.3,49.2c1.4,0,2.1,0.7,2.1,2c0,1.3-0.7,2-2.1,2h-12.6v61.5c0,2.2,0.8,4.1,2.4,5.7
		c1.6,1.6,3.3,2.4,5,2.4c1.8,0,2.7,0.7,2.7,2c0,1.3-0.7,2-2.1,2c-3.3,0-6.1-1.2-8.4-3.6c-2.4-2.4-3.5-5.2-3.5-8.4V53.1h-13.3
		c-1.4,0-2.1-0.7-2.1-2c0-1.3,0.7-2,2.1-2h13.3V18.2c0-1.4,0.7-2.1,2-2.1c1.3,0,2,0.7,2,2.1v30.9H792.3z"/>
	<path fill="#2AA8E0" d="M884.9,84.8v0.6c-0.2,1.3-0.8,1.9-1.9,1.9h-68.8v0.5c0,9.5,3.3,17.6,9.9,24.4c6.6,6.8,14.5,10.2,23.7,10.3
		c5.8,0,11.1-1.4,16-4.3s8.8-6.7,11.8-11.5c0.7-1,1.7-1.2,2.8-0.5c1.1,0.7,1.3,1.6,0.6,2.7c-3.4,5.3-7.8,9.5-13.3,12.7
		c-5.5,3.2-11.4,4.8-17.8,4.8c-10.3-0.1-19.1-3.9-26.4-11.4c-7.3-7.5-11-16.6-11.2-27.2c0.2-10.7,3.9-19.9,11.2-27.4
		c7.3-7.5,15.9-11.3,26-11.3c10,0,18.6,3.4,25.7,10.3C880.3,66.2,884.2,74.7,884.9,84.8z M869.9,61.9c-6.3-5.8-13.7-8.7-22.2-8.7
		c-8.5,0-15.9,2.9-22.2,8.7c-6.4,5.8-10.1,13-11.1,21.6H881C879.9,74.9,876.2,67.7,869.9,61.9z"/>
	<path fill="#2AA8E0" d="M945.2,53.3c-15.6,0-27.5,11.7-35.7,35v36.1c0,1.4-0.6,2.1-1.9,2.1s-1.9-0.7-1.9-2.1V88.3
		c-0.1-0.2-0.1-0.5,0-0.9V51.2c0-0.5,0.2-1,0.6-1.4c0.4-0.4,0.8-0.6,1.3-0.6c1.3,0,1.9,0.7,1.9,2.1v26.2c1.5-3.5,3.1-6.5,4.9-9.2
		c8.5-12.7,18.8-19.1,30.8-19.1c1.4,0,2.1,0.7,2.1,2.1C947.2,52.6,946.6,53.3,945.2,53.3z"/>
</g>
<g>
	<path fill="#FFFFFF" d="M189.2,194.3V154c0-0.5,0.3-0.8,0.8-0.8h8c5.8,0,10.7,2,14.8,6.1c4.1,4.1,6.1,9,6.1,14.8
		c0,5.8-2,10.7-6.1,14.8c-4.1,4.1-9,6.1-14.8,6.1h-8C189.5,195,189.2,194.8,189.2,194.3z M190.7,193.5h7.3c5.4-0.1,9.9-2,13.7-5.8
		c3.8-3.8,5.7-8.3,5.7-13.7c0-5.3-1.9-9.9-5.7-13.7c-3.8-3.8-8.3-5.7-13.7-5.7h-7.3V193.5z"/>
	<path fill="#FFFFFF" d="M286.1,195h-22.2c-0.5,0-0.7-0.3-0.7-0.8V154c0-0.4,0.2-0.7,0.7-0.8h22.2c0.5,0,0.7,0.2,0.7,0.7
		c0,0.5-0.2,0.7-0.7,0.7h-21.5v18.6h18.9c0.5,0,0.7,0.2,0.7,0.7s-0.2,0.7-0.7,0.7h-18.9v18.7h21.5c0.5,0,0.7,0.2,0.7,0.7
		C286.8,194.8,286.6,195,286.1,195z"/>
	<path fill="#FFFFFF" d="M344.5,195h-0.2l-0.1-0.1c-0.1,0-0.3-0.1-0.4-0.4l-16.9-40.1c-0.2-0.3-0.1-0.5,0-0.7
		c0.2-0.2,0.4-0.3,0.7-0.3c0.3,0,0.5,0.1,0.7,0.4l16.2,38.5l16.2-38.5c0.2-0.5,0.5-0.6,1-0.4c0.4,0.1,0.6,0.4,0.4,1l-16.9,40.1
		l-0.1,0.1c0,0.2-0.2,0.3-0.4,0.4h-0.1C344.7,195,344.6,195,344.5,195z"/>
	<path fill="#FFFFFF" d="M427.1,195h-22.2c-0.5,0-0.7-0.3-0.7-0.8V154c0-0.4,0.2-0.7,0.7-0.8h22.2c0.5,0,0.7,0.2,0.7,0.7
		c0,0.5-0.2,0.7-0.7,0.7h-21.5v18.6h18.9c0.5,0,0.7,0.2,0.7,0.7s-0.2,0.7-0.7,0.7h-18.9v18.7h21.5c0.5,0,0.7,0.2,0.7,0.7
		C427.8,194.8,427.6,195,427.1,195z"/>
	<path fill="#FFFFFF" d="M494.7,195h-22.2c-0.5,0-0.8-0.3-0.8-0.8V154c0-0.5,0.2-0.8,0.7-0.8s0.7,0.3,0.7,0.8v39.5h21.5
		c0.5,0,0.8,0.2,0.8,0.7C495.5,194.8,495.2,195,494.7,195z"/>
	<path fill="#FFFFFF" d="M536.8,159c3.9-4.2,8.7-6.3,14.3-6.3c5.6,0,10.4,2.1,14.4,6.3c4,4.2,6,9.3,6.1,15.2c-0.1,6-2.1,11.1-6,15.3
		c-3.9,4.2-8.7,6.3-14.4,6.3c-5.6,0-10.4-2.1-14.4-6.3c-3.9-4.2-5.9-9.3-6-15.3C530.9,168.2,532.9,163.2,536.8,159z M551.2,194.2
		c5.1-0.1,9.5-2.1,13.2-5.9c3.7-3.9,5.5-8.6,5.5-14c0-5.5-1.9-10.2-5.5-14.1c-3.7-3.9-8.1-5.8-13.2-5.8s-9.5,1.9-13.2,5.8
		c-3.7,3.9-5.5,8.6-5.5,14.1c0,5.5,1.8,10.2,5.5,14.1C541.6,192.1,546,194.1,551.2,194.2z"/>
	<path fill="#FFFFFF" d="M615.6,194.3V154c0-0.5,0.3-0.8,0.8-0.8h12.2c3.2,0,5.9,1.1,8.2,3.4c2.3,2.3,3.4,5,3.4,8.2
		c0,3.2-1.1,6-3.4,8.2c-2.3,2.2-5,3.4-8.2,3.4h-11.5v17.8c0,0.5-0.2,0.8-0.7,0.8S615.6,194.8,615.6,194.3z M617.1,174.9h11.5
		c2.8,0,5.2-1,7.1-2.9c2-1.9,3-4.3,3-7.1c0-2.8-1-5.2-3-7.2c-2-2-4.3-3-7.1-3h-11.5V174.9z"/>
	<path fill="#FFFFFF" d="M718.4,194.3v-37.9l-15.2,21.2c-0.2,0.2-0.4,0.3-0.7,0.3h-0.1c-0.3,0-0.5-0.1-0.7-0.3l-15.3-21.2v38
		c0,0.5-0.2,0.8-0.7,0.8s-0.7-0.3-0.7-0.8v-40.1c0-0.2,0.1-0.4,0.2-0.5c0.2-0.2,0.3-0.2,0.5-0.2c0.2,0,0.5,0.1,0.8,0.3l16,22.2
		l16-22.2c0.2-0.2,0.4-0.3,0.7-0.3c0.5,0,0.8,0.3,0.8,0.8v40.1c0,0.5-0.3,0.8-0.8,0.8c-0.2,0-0.4-0.1-0.5-0.2
		C718.5,194.6,718.4,194.5,718.4,194.3z"/>
	<path fill="#FFFFFF" d="M790.5,195h-22.2c-0.5,0-0.7-0.3-0.7-0.8V154c0-0.4,0.2-0.7,0.7-0.8h22.2c0.5,0,0.7,0.2,0.7,0.7
		c0,0.5-0.2,0.7-0.7,0.7h-21.5v18.6H788c0.5,0,0.7,0.2,0.7,0.7s-0.2,0.7-0.7,0.7h-18.9v18.7h21.5c0.5,0,0.7,0.2,0.7,0.7
		C791.3,194.8,791,195,790.5,195z"/>
	<path fill="#FFFFFF" d="M865.3,194.5l-27.4-38.1v37.9c0,0.5-0.2,0.8-0.7,0.8c-0.2,0-0.4-0.1-0.5-0.2c-0.2-0.2-0.2-0.3-0.2-0.5
		v-40.1c0-0.2,0.1-0.5,0.3-0.7c0.4-0.2,0.8-0.2,1.1,0.1l27.6,38.3v-37.6c0-0.2,0.1-0.4,0.2-0.5c0.2-0.2,0.3-0.2,0.5-0.2
		c0.5,0,0.7,0.3,0.7,0.8v39.9c0,0.5-0.2,0.8-0.7,0.8C865.7,195,865.5,194.9,865.3,194.5C865.3,194.5,865.3,194.5,865.3,194.5z"/>
	<path fill="#FFFFFF" d="M924.7,194.3v-39.5h-13.8c-0.5,0-0.8-0.2-0.8-0.7c0-0.5,0.3-0.7,0.8-0.7H940c0.5,0,0.8,0.2,0.8,0.7
		c0,0.5-0.3,0.7-0.8,0.7h-13.7v39.5c0,0.2-0.1,0.4-0.2,0.5c-0.2,0.2-0.3,0.2-0.5,0.2C925,195,924.7,194.8,924.7,194.3z"/>
</g>
</svg>
